<svg width="110" height="20" viewBox="0 0 110 20" fill="none" xmlns="http://www.w3.org/2000/svg">
<path d="M5.88477 8.95508H2.22266L2.20312 6.70898H5.17188C5.70573 6.70898 6.13216 6.65039 6.45117 6.5332C6.77018 6.40951 7.0013 6.23047 7.14453 5.99609C7.29427 5.76172 7.36914 5.46875 7.36914 5.11719C7.36914 4.71354 7.29427 4.38802 7.14453 4.14062C6.99479 3.89323 6.75716 3.71419 6.43164 3.60352C6.11263 3.48633 5.69922 3.42773 5.19141 3.42773H3.51172V15H0.0839844V0.78125H5.19141C6.07031 0.78125 6.85482 0.86263 7.54492 1.02539C8.23503 1.18164 8.82096 1.42253 9.30273 1.74805C9.79102 2.07357 10.1621 2.48372 10.416 2.97852C10.6699 3.4668 10.7969 4.04297 10.7969 4.70703C10.7969 5.28646 10.6732 5.83008 10.4258 6.33789C10.1784 6.8457 9.76497 7.25911 9.18555 7.57812C8.61263 7.89062 7.82812 8.05339 6.83203 8.06641L5.88477 8.95508ZM5.74805 15H1.39258L2.56445 12.3633H5.74805C6.2168 12.3633 6.59115 12.2917 6.87109 12.1484C7.15755 11.9987 7.36263 11.8034 7.48633 11.5625C7.61654 11.3151 7.68164 11.0417 7.68164 10.7422C7.68164 10.3776 7.61979 10.0618 7.49609 9.79492C7.37891 9.52799 7.1901 9.32292 6.92969 9.17969C6.66927 9.02995 6.32096 8.95508 5.88477 8.95508H3.00391L3.02344 6.70898H6.4707L7.27148 7.60742C8.22201 7.56836 8.97396 7.70182 9.52734 8.00781C10.0872 8.3138 10.4876 8.71745 10.7285 9.21875C10.9694 9.72005 11.0898 10.2441 11.0898 10.791C11.0898 11.722 10.888 12.5 10.4844 13.125C10.0872 13.75 9.49154 14.2188 8.69727 14.5312C7.90299 14.8438 6.91992 15 5.74805 15ZM12.4277 9.82422V9.61914C12.4277 8.8444 12.5384 8.13151 12.7598 7.48047C12.9811 6.82292 13.3066 6.25326 13.7363 5.77148C14.166 5.28971 14.6966 4.91536 15.3281 4.64844C15.9596 4.375 16.6888 4.23828 17.5156 4.23828C18.349 4.23828 19.0814 4.375 19.7129 4.64844C20.3509 4.91536 20.8848 5.28971 21.3145 5.77148C21.7441 6.25326 22.0697 6.82292 22.291 7.48047C22.5124 8.13151 22.623 8.8444 22.623 9.61914V9.82422C22.623 10.5924 22.5124 11.3053 22.291 11.9629C22.0697 12.6139 21.7441 13.1836 21.3145 13.6719C20.8848 14.1536 20.3542 14.528 19.7227 14.7949C19.0911 15.0618 18.362 15.1953 17.5352 15.1953C16.7083 15.1953 15.9759 15.0618 15.3379 14.7949C14.6999 14.528 14.166 14.1536 13.7363 13.6719C13.3066 13.1836 12.9811 12.6139 12.7598 11.9629C12.5384 11.3053 12.4277 10.5924 12.4277 9.82422ZM15.7188 9.61914V9.82422C15.7188 10.2214 15.748 10.5924 15.8066 10.9375C15.8652 11.2826 15.9629 11.5853 16.0996 11.8457C16.2363 12.0996 16.4219 12.2982 16.6562 12.4414C16.8906 12.5846 17.1836 12.6562 17.5352 12.6562C17.8802 12.6562 18.1667 12.5846 18.3945 12.4414C18.6289 12.2982 18.8145 12.0996 18.9512 11.8457C19.0879 11.5853 19.1855 11.2826 19.2441 10.9375C19.3027 10.5924 19.332 10.2214 19.332 9.82422V9.61914C19.332 9.23503 19.3027 8.8737 19.2441 8.53516C19.1855 8.1901 19.0879 7.88737 18.9512 7.62695C18.8145 7.36003 18.6289 7.15169 18.3945 7.00195C18.1602 6.85221 17.8672 6.77734 17.5156 6.77734C17.1706 6.77734 16.8809 6.85221 16.6465 7.00195C16.4186 7.15169 16.2363 7.36003 16.0996 7.62695C15.9629 7.88737 15.8652 8.1901 15.8066 8.53516C15.748 8.8737 15.7188 9.23503 15.7188 9.61914ZM30.2598 12.4316V4.43359H33.5605V15H30.4746L30.2598 12.4316ZM30.5723 10.2832L31.4316 10.2637C31.4316 10.9733 31.347 11.6309 31.1777 12.2363C31.0085 12.8353 30.7578 13.3561 30.4258 13.7988C30.1003 14.2415 29.6966 14.5866 29.2148 14.834C28.7396 15.0749 28.1895 15.1953 27.5645 15.1953C27.0436 15.1953 26.5651 15.1237 26.1289 14.9805C25.6992 14.8307 25.3281 14.5996 25.0156 14.2871C24.7031 13.9681 24.459 13.5612 24.2832 13.0664C24.1139 12.5651 24.0293 11.9661 24.0293 11.2695V4.43359H27.3203V11.2891C27.3203 11.5234 27.3496 11.7253 27.4082 11.8945C27.4668 12.0638 27.5514 12.207 27.6621 12.3242C27.7728 12.4349 27.9095 12.5195 28.0723 12.5781C28.2415 12.6302 28.4336 12.6562 28.6484 12.6562C29.1432 12.6562 29.5306 12.5521 29.8105 12.3438C30.0905 12.1354 30.2858 11.8522 30.3965 11.4941C30.5137 11.1361 30.5723 10.7324 30.5723 10.2832ZM40.9434 4.43359V6.71875H34.5762V4.43359H40.9434ZM35.9141 1.80664H39.2051V11.5527C39.2051 11.8327 39.2376 12.0508 39.3027 12.207C39.3678 12.3568 39.4785 12.4642 39.6348 12.5293C39.7975 12.5879 40.0124 12.6172 40.2793 12.6172C40.4681 12.6172 40.6243 12.6139 40.748 12.6074C40.8717 12.5944 40.9889 12.5781 41.0996 12.5586V14.9121C40.8197 15.0033 40.5267 15.0716 40.2207 15.1172C39.9147 15.1693 39.5892 15.1953 39.2441 15.1953C38.541 15.1953 37.9388 15.0846 37.4375 14.8633C36.9427 14.6419 36.5651 14.2936 36.3047 13.8184C36.0443 13.3431 35.9141 12.7246 35.9141 11.9629V1.80664ZM45.7285 4.43359V15H42.4277V4.43359H45.7285ZM42.2324 1.70898C42.2324 1.24023 42.4017 0.85612 42.7402 0.556641C43.0788 0.257161 43.5182 0.107422 44.0586 0.107422C44.599 0.107422 45.0384 0.257161 45.377 0.556641C45.7155 0.85612 45.8848 1.24023 45.8848 1.70898C45.8848 2.17773 45.7155 2.56185 45.377 2.86133C45.0384 3.16081 44.599 3.31055 44.0586 3.31055C43.5182 3.31055 43.0788 3.16081 42.7402 2.86133C42.4017 2.56185 42.2324 2.17773 42.2324 1.70898ZM53.834 19.0625V6.65039L54.293 4.43359H57.1445V19.0625H53.834ZM47.3496 9.81445V9.60938C47.3496 8.80859 47.4375 8.07943 47.6133 7.42188C47.7891 6.75781 48.0495 6.19141 48.3945 5.72266C48.7396 5.2474 49.166 4.88281 49.6738 4.62891C50.1882 4.36849 50.7806 4.23828 51.4512 4.23828C52.0827 4.23828 52.623 4.375 53.0723 4.64844C53.528 4.92188 53.9089 5.30599 54.2148 5.80078C54.5208 6.28906 54.7682 6.86198 54.957 7.51953C55.1523 8.17708 55.3053 8.88672 55.416 9.64844V9.89258C55.3053 10.6087 55.1523 11.2858 54.957 11.9238C54.7682 12.5618 54.5208 13.1283 54.2148 13.623C53.9089 14.1113 53.528 14.4954 53.0723 14.7754C52.6165 15.0553 52.0697 15.1953 51.4316 15.1953C50.7676 15.1953 50.1816 15.0618 49.6738 14.7949C49.166 14.5215 48.7396 14.1439 48.3945 13.6621C48.0495 13.1738 47.7891 12.6042 47.6133 11.9531C47.4375 11.2956 47.3496 10.5827 47.3496 9.81445ZM50.6406 9.60938V9.81445C50.6406 10.2116 50.6667 10.5827 50.7188 10.9277C50.7708 11.2663 50.8587 11.5658 50.9824 11.8262C51.1126 12.0866 51.2819 12.2917 51.4902 12.4414C51.6986 12.5846 51.959 12.6562 52.2715 12.6562C52.7467 12.6562 53.1211 12.5521 53.3945 12.3438C53.668 12.1354 53.86 11.8457 53.9707 11.4746C54.0814 11.097 54.127 10.6576 54.1074 10.1562V9.38477C54.1139 8.95508 54.0879 8.57747 54.0293 8.25195C53.9707 7.92643 53.8698 7.65625 53.7266 7.44141C53.5898 7.22005 53.4043 7.05404 53.1699 6.94336C52.9355 6.83268 52.6426 6.77734 52.291 6.77734C51.985 6.77734 51.7246 6.84896 51.5098 6.99219C51.3014 7.12891 51.1322 7.32422 51.002 7.57812C50.8783 7.83203 50.7871 8.13151 50.7285 8.47656C50.6699 8.82161 50.6406 9.19922 50.6406 9.60938ZM65.1816 12.4316V4.43359H68.4824V15H65.3965L65.1816 12.4316ZM65.4941 10.2832L66.3535 10.2637C66.3535 10.9733 66.2689 11.6309 66.0996 12.2363C65.9303 12.8353 65.6797 13.3561 65.3477 13.7988C65.0221 14.2415 64.6185 14.5866 64.1367 14.834C63.6615 15.0749 63.1113 15.1953 62.4863 15.1953C61.9655 15.1953 61.487 15.1237 61.0508 14.9805C60.6211 14.8307 60.25 14.5996 59.9375 14.2871C59.625 13.9681 59.3809 13.5612 59.2051 13.0664C59.0358 12.5651 58.9512 11.9661 58.9512 11.2695V4.43359H62.2422V11.2891C62.2422 11.5234 62.2715 11.7253 62.3301 11.8945C62.3887 12.0638 62.4733 12.207 62.584 12.3242C62.6947 12.4349 62.8314 12.5195 62.9941 12.5781C63.1634 12.6302 63.3555 12.6562 63.5703 12.6562C64.0651 12.6562 64.4525 12.5521 64.7324 12.3438C65.0124 12.1354 65.2077 11.8522 65.3184 11.4941C65.4355 11.1361 65.4941 10.7324 65.4941 10.2832ZM75.416 15.1953C74.5566 15.1953 73.7884 15.0618 73.1113 14.7949C72.4342 14.5215 71.8613 14.1471 71.3926 13.6719C70.9303 13.1966 70.5755 12.6497 70.3281 12.0312C70.0872 11.4128 69.9668 10.7585 69.9668 10.0684V9.69727C69.9668 8.92253 70.0742 8.20638 70.2891 7.54883C70.5039 6.88477 70.8229 6.30534 71.2461 5.81055C71.6693 5.31576 72.1999 4.93164 72.8379 4.6582C73.4759 4.37826 74.2181 4.23828 75.0645 4.23828C75.8132 4.23828 76.4837 4.35872 77.0762 4.59961C77.6686 4.84049 78.1699 5.18555 78.5801 5.63477C78.9967 6.08398 79.3125 6.6276 79.5273 7.26562C79.7487 7.90365 79.8594 8.61979 79.8594 9.41406V10.752H71.2266V8.69141H76.6465V8.4375C76.653 8.08594 76.5911 7.78646 76.4609 7.53906C76.3372 7.29167 76.1549 7.10286 75.9141 6.97266C75.6732 6.84245 75.3802 6.77734 75.0352 6.77734C74.6771 6.77734 74.3809 6.85547 74.1465 7.01172C73.9186 7.16797 73.7396 7.38281 73.6094 7.65625C73.4857 7.92318 73.3978 8.23242 73.3457 8.58398C73.2936 8.93555 73.2676 9.30664 73.2676 9.69727V10.0684C73.2676 10.459 73.3197 10.8138 73.4238 11.1328C73.5345 11.4518 73.6908 11.7253 73.8926 11.9531C74.1009 12.1745 74.3483 12.347 74.6348 12.4707C74.9277 12.5944 75.2598 12.6562 75.6309 12.6562C76.0801 12.6562 76.5228 12.5716 76.959 12.4023C77.3952 12.2331 77.7695 11.9531 78.082 11.5625L79.5762 13.3398C79.3613 13.6458 79.0553 13.9421 78.6582 14.2285C78.2676 14.515 77.7988 14.7493 77.252 14.9316C76.7051 15.1074 76.0931 15.1953 75.416 15.1953ZM89.7617 0.78125V15H86.334V0.78125H89.7617ZM98.248 0.78125L92.7402 7.98828L89.5176 11.5137L88.8926 8.36914L90.9531 5.24414L94.0195 0.78125H98.248ZM94.1953 15L90.5234 8.59375L93.1895 6.63086L98.248 15H94.1953ZM109.771 12.3633V15H99.4785V12.3633H109.771ZM109.703 2.53906L101.178 15H98.6973V13.1934L107.32 0.78125H109.703V2.53906ZM108.6 0.78125V3.42773H98.6484V0.78125H108.6Z" fill="black"/>
</svg>
